<svg xmlns="http://www.w3.org/2000/svg" width="1600" height="900" viewBox="0 0 1600 900"><rect width="1600" height="900" fill="#ffffff" /><rect x="116" y="150" width="1436" height="610" fill="#ffffff" stroke="#9ca3af" stroke-width="1.2" /><line x1="116" y1="760.00" x2="1552" y2="760.00" stroke="#e5e7eb" /><text x="102" y="765.00" text-anchor="end" font-family="Arial, sans-serif" font-size="18" fill="#374151">-4.3%</text><line x1="116" y1="638.00" x2="1552" y2="638.00" stroke="#e5e7eb" /><text x="102" y="643.00" text-anchor="end" font-family="Arial, sans-serif" font-size="18" fill="#374151">4.9%</text><line x1="116" y1="516.00" x2="1552" y2="516.00" stroke="#e5e7eb" /><text x="102" y="521.00" text-anchor="end" font-family="Arial, sans-serif" font-size="18" fill="#374151">14.0%</text><line x1="116" y1="394.00" x2="1552" y2="394.00" stroke="#e5e7eb" /><text x="102" y="399.00" text-anchor="end" font-family="Arial, sans-serif" font-size="18" fill="#374151">23.2%</text><line x1="116" y1="272.00" x2="1552" y2="272.00" stroke="#e5e7eb" /><text x="102" y="277.00" text-anchor="end" font-family="Arial, sans-serif" font-size="18" fill="#374151">32.3%</text><line x1="116" y1="150.00" x2="1552" y2="150.00" stroke="#e5e7eb" /><text x="102" y="155.00" text-anchor="end" font-family="Arial, sans-serif" font-size="18" fill="#374151">41.5%</text><line x1="116.00" y1="150" x2="116.00" y2="760" stroke="#f3f4f6" /><text x="116.00" y="790" text-anchor="middle" font-family="Arial, sans-serif" font-size="17" fill="#374151">2026-01-01</text><line x1="406.95" y1="150" x2="406.95" y2="760" stroke="#f3f4f6" /><text x="406.95" y="790" text-anchor="middle" font-family="Arial, sans-serif" font-size="17" fill="#374151">2026-02-06</text><line x1="688.52" y1="150" x2="688.52" y2="760" stroke="#f3f4f6" /><text x="688.52" y="790" text-anchor="middle" font-family="Arial, sans-serif" font-size="17" fill="#374151">2026-03-13</text><line x1="979.48" y1="150" x2="979.48" y2="760" stroke="#f3f4f6" /><text x="979.48" y="790" text-anchor="middle" font-family="Arial, sans-serif" font-size="17" fill="#374151">2026-04-20</text><line x1="1261.05" y1="150" x2="1261.05" y2="760" stroke="#f3f4f6" /><text x="1261.05" y="790" text-anchor="middle" font-family="Arial, sans-serif" font-size="17" fill="#374151">2026-05-25</text><line x1="1552.00" y1="150" x2="1552.00" y2="760" stroke="#f3f4f6" /><text x="1552.00" y="790" text-anchor="middle" font-family="Arial, sans-serif" font-size="17" fill="#374151">2026-06-30</text><line x1="116" y1="702.90" x2="1552" y2="702.90" stroke="#6b7280" stroke-dasharray="5 5" /><polyline fill="none" stroke="#CC6677" stroke-width="4.0" stroke-linecap="round" stroke-linejoin="round" points="116.00,702.90 125.39,709.17 134.77,695.27 144.16,676.30 153.54,678.14 162.93,675.73 172.31,680.42 181.70,676.39 191.08,669.01 200.47,668.39 209.86,658.17 219.24,669.72 228.63,664.97 238.01,665.71 247.40,655.01 256.78,646.14 266.17,596.57 275.56,619.32 284.94,572.71 294.33,566.79 303.71,551.20 313.10,553.08 322.48,498.74 331.87,418.92 341.25,514.91 350.64,461.73 360.03,443.14 369.41,465.76 378.80,460.12 388.18,493.94 397.57,486.26 406.95,509.43 416.34,509.54 425.73,506.13 435.11,501.57 444.50,496.57 453.88,484.95 463.27,472.19 472.65,479.35 482.04,482.80 491.42,507.52 500.81,515.32 510.20,519.27 519.58,502.10 528.97,486.86 538.35,492.40 547.74,499.59 557.12,501.32 566.51,505.44 575.90,480.00 585.28,475.50 594.67,477.69 604.05,440.80 613.44,447.05 622.82,455.64 632.21,460.46 641.59,472.73 650.98,462.14 660.37,450.41 669.75,467.69 679.14,451.87 688.52,422.43 697.91,422.51 707.29,422.51 716.68,422.51 726.07,404.73 735.45,380.99 744.84,340.43 754.22,321.72 763.61,375.88 772.99,469.38 782.38,482.60 791.76,498.82 801.15,498.92 810.54,497.66 819.92,478.10 829.31,449.45 838.69,448.29 848.08,447.60 857.46,447.80 866.85,447.80 876.24,415.54 885.62,442.20 895.01,428.92 904.39,425.28 913.78,418.73 923.16,411.52 932.55,402.62 941.93,403.33 951.32,398.64 960.71,404.00 970.09,404.34 979.48,403.47 988.86,397.96 998.25,388.36 1007.63,383.67 1017.02,389.51 1026.41,394.03 1035.79,386.27 1045.18,372.94 1054.56,384.64 1063.95,368.51 1073.33,367.36 1082.72,370.20 1092.10,369.09 1101.49,387.94 1110.88,384.99 1120.26,381.27 1129.65,381.68 1139.03,382.29 1148.42,363.03 1157.80,376.80 1167.19,371.55 1176.58,361.55 1185.96,350.16 1195.35,351.42 1204.73,354.78 1214.12,339.65 1223.50,347.39 1232.89,347.39 1242.27,343.58 1251.66,348.19 1261.05,353.84 1270.43,358.36 1279.82,293.92 1289.20,334.37 1298.59,342.75 1307.97,348.71 1317.36,347.07 1326.75,348.51 1336.13,346.68 1345.52,346.82 1354.90,324.64 1364.29,323.53 1373.67,325.71 1383.06,299.16 1392.44,248.74 1401.83,284.53 1411.22,288.26 1420.60,277.24 1429.99,277.69 1439.37,277.83 1448.76,279.13 1458.14,244.22 1467.53,244.35 1476.92,250.29 1486.30,244.24 1495.69,224.28 1505.07,208.93 1514.46,209.11 1523.84,226.05 1533.23,223.80 1542.61,200.99 1552.00,200.83" /><polyline fill="none" stroke="#0072B2" stroke-width="4.0" stroke-linecap="round" stroke-linejoin="round" points="116.00,702.90 125.39,702.90 134.77,688.97 144.16,669.91 153.54,671.76 162.93,679.91 172.31,670.64 181.70,658.32 191.08,643.21 200.47,636.30 209.86,625.85 219.24,637.67 228.63,632.80 238.01,633.56 247.40,622.61 256.78,613.54 266.17,562.80 275.56,586.08 284.94,538.38 294.33,532.33 303.71,516.37 313.10,518.29 322.48,462.67 331.87,380.99 341.25,479.22 350.64,479.71 360.03,479.71 369.41,505.13 378.80,503.08 388.18,535.98 397.57,543.08 406.95,520.57 416.34,517.33 425.73,511.40 435.11,506.86 444.50,501.87 453.88,517.63 463.27,507.72 472.65,514.71 482.04,521.26 491.42,529.80 500.81,537.48 510.20,539.63 519.58,528.26 528.97,520.75 538.35,523.42 547.74,519.89 557.12,518.70 566.51,522.33 575.90,509.78 585.28,507.56 594.67,508.54 604.05,541.33 613.44,538.83 622.82,546.94 632.21,542.48 641.59,554.04 650.98,543.99 660.37,537.91 669.75,546.06 679.14,547.19 688.52,534.35 697.91,536.25 707.29,537.18 716.68,529.67 726.07,508.92 735.45,486.69 744.84,448.72 754.22,431.21 763.61,434.33 772.99,479.88 782.38,488.14 791.76,499.58 801.15,485.55 810.54,484.23 819.92,474.78 829.31,452.76 838.69,452.10 848.08,451.41 857.46,453.68 866.85,453.91 876.24,430.28 885.62,443.49 895.01,434.69 904.39,438.36 913.78,445.26 923.16,437.36 932.55,428.61 941.93,429.31 951.32,433.21 960.71,429.44 970.09,429.44 979.48,425.82 988.86,420.39 998.25,410.92 1007.63,406.29 1017.02,412.05 1026.41,416.51 1035.79,408.86 1045.18,395.71 1054.56,396.44 1063.95,383.52 1073.33,384.72 1082.72,387.45 1092.10,401.62 1101.49,417.03 1110.88,425.25 1120.26,428.97 1129.65,428.44 1139.03,430.82 1148.42,421.47 1157.80,439.30 1167.19,434.25 1176.58,424.63 1185.96,413.77 1195.35,413.77 1204.73,415.98 1214.12,401.40 1223.50,408.86 1232.89,408.86 1242.27,408.86 1251.66,413.33 1261.05,414.45 1270.43,412.32 1279.82,377.70 1289.20,398.17 1298.59,404.84 1307.97,410.45 1317.36,410.45 1326.75,403.16 1336.13,400.04 1345.52,396.22 1354.90,374.68 1364.29,373.61 1373.67,375.73 1383.06,349.96 1392.44,325.90 1401.83,353.61 1411.22,357.18 1420.60,357.23 1429.99,357.23 1439.37,357.23 1448.76,357.23 1458.14,357.23 1467.53,353.01 1476.92,358.58 1486.30,352.90 1495.69,334.15 1505.07,319.73 1514.46,319.90 1523.84,335.82 1533.23,333.70 1542.61,312.27 1552.00,312.13" /><line x1="116" y1="100" x2="150" y2="100" stroke="#CC6677" stroke-width="4" /><text x="164" y="106" font-family="Arial, sans-serif" font-size="20" fill="#111827">Analysis-only</text><line x1="416" y1="100" x2="450" y2="100" stroke="#0072B2" stroke-width="4" /><text x="464" y="106" font-family="Arial, sans-serif" font-size="20" fill="#111827">PM</text><text x="116" y="48" font-family="Arial, sans-serif" font-size="30" font-weight="700" fill="#111827">GCUSD analysis-only vs PM exposure</text><text x="116" y="78" font-family="Arial, sans-serif" font-size="18" fill="#4b5563">2026-01-01 to 2026-06-30 | initial equity $100,000 | 0.5 bps per side</text><text transform="translate(32 455.00) rotate(-90)" font-family="Arial, sans-serif" font-size="19" fill="#374151">Cumulative return (%)</text><text x="834.00" y="870" text-anchor="middle" font-family="Arial, sans-serif" font-size="20" fill="#374151">Trading day</text></svg>